<?xml version="1.0" standalone="no"?>
<!DOCTYPE svg PUBLIC "-//W3C//DTD SVG 20010904//EN"
 "http://www.w3.org/TR/2001/REC-SVG-20010904/DTD/svg10.dtd">
<svg version="1.0" xmlns="http://www.w3.org/2000/svg"
 width="262.000000pt" height="262.000000pt" viewBox="0 0 262.000000 262.000000"
 preserveAspectRatio="xMidYMid meet">
<metadata>
Created by potrace 1.14, written by Peter Selinger 2001-2017
</metadata>
<g transform="translate(0.000000,262.000000) scale(0.100000,-0.100000)"
fill="#000000" stroke="none">
<path d="M1330 2329 l0 -292 58 7 c31 3 77 10 102 16 25 5 86 16 135 25 50 9
113 20 140 26 28 5 79 14 115 20 36 6 99 17 140 24 41 7 118 21 170 30 52 9
133 23 180 31 47 9 112 19 145 25 102 15 105 17 105 47 0 32 19 32 -182 -3
-49 -8 -127 -22 -175 -30 -49 -9 -124 -22 -168 -30 -44 -7 -118 -20 -165 -29
-47 -8 -125 -22 -175 -31 -49 -9 -115 -21 -145 -26 -30 -5 -75 -13 -100 -18
-25 -6 -60 -10 -77 -11 l-33 0 0 255 0 255 -35 0 -35 0 0 -291z"/>
<path d="M1355 1843 c-16 -2 -34 -9 -39 -14 -6 -5 -17 -9 -25 -9 -8 0 -44 -14
-80 -32 -89 -43 -205 -159 -249 -248 -26 -54 -39 -68 -74 -85 -57 -27 -123
-95 -143 -150 -12 -31 -16 -64 -13 -111 4 -64 6 -68 49 -109 24 -23 50 -44 58
-46 10 -4 8 -13 -8 -40 -43 -73 -57 -137 -51 -235 5 -80 9 -96 33 -128 68 -88
195 -99 347 -30 36 17 140 90 151 107 10 14 299 15 299 1 0 -20 78 -101 114
-118 22 -10 60 -16 108 -16 84 0 133 19 214 80 55 41 138 155 150 205 4 17 11
36 17 43 5 7 10 51 10 97 0 75 -3 89 -26 124 -26 40 -63 65 -122 86 -40 14
-36 44 14 105 46 57 68 106 77 167 12 97 -28 173 -113 213 -39 18 -60 21 -123
18 -71 -4 -78 -3 -120 26 -56 38 -130 75 -150 76 -9 0 -21 5 -27 11 -12 12
-223 21 -278 12z m240 -52 c138 -29 289 -152 350 -285 37 -79 58 -200 48 -273
-5 -39 -8 -43 -32 -43 -36 0 -146 -44 -194 -77 -38 -27 -117 -113 -117 -129 0
-5 -7 -22 -16 -39 -9 -16 -18 -63 -21 -102 l-6 -73 -34 -6 c-49 -9 -239 1
-255 13 -7 6 -25 13 -41 17 -69 16 -212 138 -251 214 -13 25 -14 33 -4 37 56
20 70 26 65 31 -3 3 -22 1 -44 -5 -134 -38 -273 35 -273 144 0 43 41 121 83
158 37 32 97 63 145 72 17 4 32 11 32 16 0 6 -9 7 -20 4 -15 -5 -20 -2 -20 11
0 21 60 119 97 159 37 40 108 95 122 95 6 0 11 5 11 10 0 6 5 10 11 10 6 0 25
7 42 15 90 41 205 51 322 26z m445 -140 c82 -43 103 -135 53 -236 -30 -63 -59
-93 -73 -79 -5 5 -14 33 -20 62 -11 63 -52 153 -92 203 -44 58 -39 69 35 69
41 0 74 -6 97 -19z m31 -491 c83 -23 119 -100 101 -210 -16 -93 -46 -145 -127
-225 -52 -52 -84 -75 -122 -87 -103 -36 -194 -13 -251 62 -25 33 -27 42 -27
135 0 100 0 100 39 158 87 130 256 203 387 167z m-1077 -137 c25 -69 139 -181
236 -232 l64 -34 -41 -37 c-104 -92 -279 -138 -360 -94 -88 47 -96 192 -21
339 31 60 48 75 83 75 22 0 35 -6 39 -17z"/>
<path d="M1704 1505 c-32 -17 -70 -70 -56 -79 5 -3 22 10 38 29 37 45 87 48
133 9 30 -25 31 -25 31 -5 0 44 -92 73 -146 46z"/>
<path d="M1362 1459 c-36 -23 -71 -79 -50 -79 6 0 23 14 37 30 36 42 91 51
131 21 16 -11 37 -21 47 -21 14 0 11 6 -13 31 -42 42 -105 49 -152 18z"/>
<path d="M1590 1343 c-40 -8 -72 -43 -65 -73 11 -43 34 -60 81 -60 52 0 84 33
84 87 0 27 -5 35 -26 43 -26 10 -31 10 -74 3z m70 -73 c13 -9 12 -13 -9 -30
-28 -24 -58 -26 -83 -3 -32 29 -22 43 30 43 26 0 54 -5 62 -10z"/>
<path d="M2347 413 c-4 -3 -44 -12 -89 -19 -96 -15 -157 -26 -283 -49 -49 -9
-128 -23 -175 -31 -47 -9 -121 -22 -165 -29 -44 -8 -119 -21 -167 -30 -49 -8
-125 -22 -170 -29 -46 -8 -123 -22 -173 -30 -49 -9 -128 -23 -175 -31 -128
-24 -243 -44 -450 -80 -52 -9 -131 -23 -175 -31 -44 -8 -119 -20 -168 -27 -48
-8 -90 -17 -94 -20 -3 -4 54 -7 128 -7 147 0 215 9 544 71 28 5 91 16 140 25
50 8 127 22 173 30 45 7 119 21 165 28 45 8 123 22 172 30 50 9 126 22 170 30
88 16 260 47 450 80 170 30 262 46 310 55 28 6 56 10 63 10 7 1 12 14 12 31 0
22 -5 30 -18 30 -10 0 -22 -3 -25 -7z"/>
</g>
</svg>
